<svg xmlns="http://www.w3.org/2000/svg" xmlns:xlink="http://www.w3.org/1999/xlink" width="209.735" height="764.364" viewBox="0 0 209.735 764.364"><defs><filter id="a" x="61.201" y="190.324" width="33.708" height="18.127" filterUnits="userSpaceOnUse"><feOffset dy="1" input="SourceAlpha"/><feGaussianBlur stdDeviation="1.5" result="b"/><feFlood flood-opacity="0.478"/><feComposite operator="in" in2="b"/><feComposite in="SourceGraphic"/></filter><filter id="c" x="114.016" y="190.324" width="33.708" height="18.127" filterUnits="userSpaceOnUse"><feOffset dy="1" input="SourceAlpha"/><feGaussianBlur stdDeviation="1.5" result="d"/><feFlood flood-opacity="0.478"/><feComposite operator="in" in2="d"/><feComposite in="SourceGraphic"/></filter><filter id="e" x="72.379" y="244.283" width="64.377" height="25.211" filterUnits="userSpaceOnUse"><feOffset dy="1" input="SourceAlpha"/><feGaussianBlur stdDeviation="3" result="f"/><feFlood flood-opacity="0.8"/><feComposite operator="in" in2="f"/><feComposite in="SourceGraphic"/></filter><filter id="g" x="69.947" y="240.917" width="23.685" height="27.006" filterUnits="userSpaceOnUse"><feOffset dy="1" input="SourceAlpha"/><feGaussianBlur stdDeviation="3" result="h"/><feFlood flood-opacity="0.4"/><feComposite operator="in" in2="h"/><feComposite in="SourceGraphic"/></filter><filter id="i" x="115.625" y="241.917" width="23.685" height="27.006" filterUnits="userSpaceOnUse"><feOffset dy="1" input="SourceAlpha"/><feGaussianBlur stdDeviation="3" result="j"/><feFlood flood-opacity="0.4"/><feComposite operator="in" in2="j"/><feComposite in="SourceGraphic"/></filter><filter id="k" x="107.768" y="163.517" width="65" height="45" filterUnits="userSpaceOnUse"><feOffset dy="4" input="SourceAlpha"/><feGaussianBlur stdDeviation="5" result="l"/><feFlood flood-color="#1621b2" flood-opacity="0.169"/><feComposite operator="in" in2="l"/><feComposite in="SourceGraphic"/></filter><filter id="m" x="37.768" y="163.517" width="65" height="45" filterUnits="userSpaceOnUse"><feOffset dy="4" input="SourceAlpha"/><feGaussianBlur stdDeviation="5" result="n"/><feFlood flood-color="#1621b2" flood-opacity="0.169"/><feComposite operator="in" in2="n"/><feComposite in="SourceGraphic"/></filter></defs><g transform="translate(-775.602 -131.483)"><path d="M784.226,303.89s4.548-3.046,8.8-2.391,5.949,1.442,7.933,6.422-.567,13.761-1.275,19.4-1.558,2.982-4.958,8.912c-.908,1.583-.275,4.548-.567,6.291-.643,3.81-1.145,6.483-6.233,7.732-6.941,1.7-5.573-8.006-5.573-8.006Z" transform="translate(176 2.81)" fill="#e3cda7"/><path d="M802.542,310.138c-5.956-1.141-6.1,2.139-7.594,6.989s-2.531,3.28-2.829,7.845,2.457,3.78,1.638,8.13-3.581,7.432-5.032,9.928" transform="translate(169.569 2.265)" fill="none" stroke="rgba(0,0,0,0.17)" stroke-linecap="round" stroke-width="1.5"/><path d="M799.723,303.89s-4.548-3.046-8.8-2.391-5.949,1.442-7.933,6.422.567,13.761,1.275,19.4,1.558,2.982,4.958,8.912c.908,1.583.275,4.548.567,6.291.643,3.81,1.145,6.483,6.233,7.732,6.941,1.7,5.573-8.006,5.573-8.006Z" transform="translate(1 2.81)" fill="#e3cda7"/><path d="M788.725,310.138c5.956-1.141,6.1,2.139,7.594,6.989s2.531,3.28,2.829,7.845-2.457,3.78-1.638,8.13,3.581,7.432,5.032,9.928" transform="translate(0.112 2.265)" fill="none" stroke="rgba(0,0,0,0.17)" stroke-linecap="round" stroke-width="1.5"/><path d="M777.993,560.224v16.012c0,12.6,1.922,14.945,1.922,14.945s-4.057,6.725-4.057,17.934-.427,5.551,4.057,29.25S792.938,686.4,792.938,686.4a20.577,20.577,0,0,0-5.765,7.046c-2.3,4.59-3.629,9.394-4.483,18.361s-1.708,14.731,6.191,31.384,11.956,12.383,11.956,12.383a17.423,17.423,0,0,0,5.764,6.832c4.084,2.812,4.7-1.067,4.7-1.067a7.543,7.543,0,0,0,5.551,4.483c4.27.854,4.483-4.483,4.483-4.483l4.057-2.135V699.212a28.747,28.747,0,0,1-5.977-4.91c-3.8-3.779-7.259-7.046-7.259-7.046s1.922-19,1.922-56.15-9.181-41.633-9.181-41.633,3.571-2.2,6.192-8.113,2.348-10.035,2.348-10.035l-1.281-4.484Z" transform="translate(1 -40)" fill="#eacda9" stroke="#000" stroke-linejoin="round" stroke-width="2.5"/><path d="M791.972,725.142s2.527,24,8.969,29.562" transform="translate(1 -40)" fill="none" stroke="#000" stroke-linecap="round" stroke-width="1.5"/><path d="M802.078,729.438s-1.642,18.823,8.717,31.078" transform="translate(1 -40)" fill="none" stroke="#000" stroke-linecap="round" stroke-width="1.5"/><path d="M811.68,730.2s-2.906,11.875,8.717,30.193" transform="translate(1 -40)" fill="none" stroke="#000" stroke-linecap="round" stroke-width="1.5"/><g transform="translate(934.847 518.224)"><path d="M823.244,560.224a121.193,121.193,0,0,1,.6,16.459,154.672,154.672,0,0,1-1.516,17.686s2.754,4.242,2.754,15.45-2.956,19.051-7.062,35.638-14.781,41.8-14.781,41.8a27.459,27.459,0,0,1,5.97,7.721c2.3,4.59,3.888,12.828,3.79,18.561s3.3,10.787-5.636,29.542-13.7,15.062-13.7,15.062.2,1.269-3.887,4.081-6.511,1.653-6.511,1.653.292,1.555-4.372,1.846-5.248-1.846-5.248-1.846l2.2-4.671V699.212a28.747,28.747,0,0,0,5.977-4.91c3.8-3.779,2.23-7.046,2.23-7.046s2.172-40.93,2.172-56.049c0-37.149,10.713-40.628,10.713-40.628s-3.191,1.366-5.811-4.548-2.653-14.781-2.653-14.781l.609-4.408Z" transform="translate(-775.847 -560.224)" fill="#eacda9" stroke="#000" stroke-linejoin="round" stroke-width="2.5"/><path d="M961.48,723.977s-2.818,24.78-10.2,31.972" transform="translate(-933.847 -558.224)" fill="none" stroke="#000" stroke-linecap="round" stroke-width="1.5"/><path d="M950.984,728.252c-1.263,9.135,2.624,19.241-10.009,33.138" transform="translate(-933.847 -558.224)" fill="none" stroke="#000" stroke-linecap="round" stroke-width="1.5"/><path d="M941.655,729.224s-3.887,32.36-7.58,26.044" transform="translate(-933.847 -558.224)" fill="none" stroke="#000" stroke-linecap="round" stroke-width="1.5"/></g><path d="M818.528,670.556s.246,11.578.886,28.658,1.281,32.879,3.63,59.14,5.765,26.672,5.765,26.672-7.259,8.343-6.619,32.041a212.163,212.163,0,0,0,5.124,41.534s-2.763,1-2.349,6.5,3.843,13.7,3.843,13.7a110.993,110.993,0,0,0,14.3,1.034,159.632,159.632,0,0,0,15.98-1.034s2.348-8.647,2.594-13.7-2.594-6.5-2.594-6.5,3.448-13.993,6.651-41.534-5.124-34.5-5.124-34.5,2.989-2.645,7.9-39.58,2.916-36.409,2.916-36.409l14.023-1.39s.355,1.717,4.411,38.866,7.9,38.513,7.9,38.513-8.967,10.379-5.978,35.786S899,858.6,899,858.6s-2.727,1.051-2.727,6.5,4.7,13.7,4.7,13.7,5.337,1.461,14.732,1.034,14.5-2.135,14.5-2.135,3.054-9.1,3.218-13.878-3.218-5.222-3.218-5.222a153.334,153.334,0,0,0,5.994-41.534c0-22.631-5.994-32.041-5.994-32.041s2.364-2.973,4.713-22.829c1.379-11.655,4.27-43.341,4.27-67.039a187.169,187.169,0,0,1,3.006-26.9Z" transform="translate(1 -40)" fill="#571022" stroke="#000" stroke-linejoin="round" stroke-width="2.5"/><path d="M827.068,858.929s18.722,3.449,32.354,0" transform="translate(1 -40)" fill="none" stroke="#000" stroke-linecap="round" stroke-width="2.5"/><path d="M898.508,858.929s15.766,2.956,31.7,0" transform="translate(1 -40)" fill="none" stroke="#000" stroke-linecap="round" stroke-width="2.5"/><path d="M858.436,706.194s24.8,2.3,41.715-5.255" transform="translate(1 -40)" fill="none" stroke="#000" stroke-linecap="round" stroke-width="3"/><path d="M818.839,684.434s5.331,2.206,9.218-7.586" transform="translate(1 -40)" fill="none" stroke="rgba(0,0,0,0.6)" stroke-linecap="round" stroke-width="1.5"/><path d="M939.64,683.837s-7.993,2.564-10.063-7.844" transform="translate(1 -40)" fill="none" stroke="rgba(0,0,0,0.6)" stroke-linecap="round" stroke-width="1.5"/><path d="M842.124,455.929c-.969,1-1.67,5.658-2.653,7.327a30.6,30.6,0,0,1-4.913,5.623l-32.722,9.912s-7.82-1.133-13.6,4.141-8.273,16.45-8.273,16.45l-2.83,61.54A67.661,67.661,0,0,0,792.4,566.2a93.444,93.444,0,0,0,18.041,1.387s3.886,10.547,4.441,15.821,2.775,6.661,2.22,29.143-1.944,56.342-1.944,56.342,8.327,6.107,25.258,16.1a79.536,79.536,0,0,0,32.75,10.824V680.824l7.217,14.988a165.834,165.834,0,0,0,34.693-11.934C933.116,675.274,943.94,665,943.94,665s-4.649-35.665-3.886-60.228,6.66-37.192,6.66-37.192a58.271,58.271,0,0,0,18.041-1.665c10.547-2.5,16.653-6.384,16.653-6.384l-2.5-50.236s.39-13.655-6.344-22.852a18.178,18.178,0,0,0-16.587-7.656l-33.339-9.912s-1.862-1.172-3.728-5.633-3.3-4.47-3.3-4.47-8.865-.942-29.586-1.247C867.459,457.257,843.93,454.216,842.124,455.929Z" transform="translate(1 -40)" fill="#1a283f" stroke="#000" stroke-linecap="round" stroke-linejoin="round" stroke-width="2.5"/><path d="M846.445,471.342l15.93-18.722,37.116,1.478,13.3,17.244s-4.188,5.994-8.868,9.361a53.579,53.579,0,0,1-11.5,5.748c-.821.493-4.64.328-6.077,3.285s-1.478,8.54-1.478,8.54l-5.42,27.919-3.449-27.1s.082-6.4-1.807-9.361-4.763-2.628-6.4-3.285-7.473-1.765-12.974-5.748a31.063,31.063,0,0,1-8.376-9.361" transform="translate(1 -40)" fill="#ebcfa8"/><path d="M956.475,505.992s-.427,11.315,0,21.777c0,7.045-2.724,13.208-4.056,17.293a168.219,168.219,0,0,0-5.124,22.2" transform="translate(1 -40)" fill="none" stroke="#000" stroke-linecap="round" stroke-width="2.5"/><path d="M947.295,505.992s1.168,12.6,1.381,22.631c.427,10.248,1.168,14.518,2.989,18.147,2.022,10.248,4.27,20.923,4.27,20.923" transform="translate(-144.92 -40)" fill="none" stroke="#000" stroke-linecap="round" stroke-width="2.5"/><path d="M889.088,487.555s-3.381-.675-4.9,12.21c-1.275,4.787-2.151,16.832-4.043,24.761-6.347,26.606-5.053,16.044-6.317,33.857s-1.177,34.235-1.177,34.235l.419,89.19" transform="translate(1 -40)" fill="none" stroke="#000" stroke-linecap="round" stroke-width="2"/><path d="M868.274,487.549s6.948-3.2,8.085,11.838,2.906,28.551,2.906,28.551" transform="translate(1 -40)" fill="none" stroke="#000" stroke-linecap="round" stroke-width="2"/><path d="M862.969,494.208s3.285,2.021,5.811,21.476,4.8,40.552,4.8,40.552" transform="translate(1 -40)" fill="none" stroke="rgba(0,0,0,0.4)" stroke-linecap="round" stroke-width="1"/><path d="M897.2,495.976s-2.274,2.4-5.053,11.875-5.306,22.613-5.306,22.613-2.211,12.475-3.158,25.266-.505,27.035-.505,27.035l-.126,46.364s-.126,39.668,0,43.711a21.715,21.715,0,0,0,1.39,7.833c.758,2.148,2.527,6.569,2.527,6.569" transform="translate(1 -40)" fill="none" stroke="rgba(0,0,0,0.4)" stroke-linecap="round" stroke-width="1"/><g transform="translate(887 458)" fill="#fff" stroke="#000" stroke-width="1"><circle cx="2.5" cy="2.5" r="2.5" stroke="none"/><circle cx="2.5" cy="2.5" r="2" fill="none"/></g><g transform="translate(881 490)" fill="#fff" stroke="#000" stroke-width="1"><circle cx="2.5" cy="2.5" r="2.5" stroke="none"/><circle cx="2.5" cy="2.5" r="2" fill="none"/></g><g transform="translate(876 525)" fill="#fff" stroke="#000" stroke-width="1"><circle cx="2.5" cy="2.5" r="2.5" stroke="none"/><circle cx="2.5" cy="2.5" r="2" fill="none"/></g><g transform="translate(876 560)" fill="#fff" stroke="#000" stroke-width="1"><circle cx="2.5" cy="2.5" r="2.5" stroke="none"/><circle cx="2.5" cy="2.5" r="2" fill="none"/></g><g transform="translate(876 595)" fill="#fff" stroke="#000" stroke-width="1"><circle cx="2.5" cy="2.5" r="2.5" stroke="none"/><circle cx="2.5" cy="2.5" r="2" fill="none"/></g><g transform="translate(876 629)" fill="#fff" stroke="#000" stroke-width="1"><circle cx="2.5" cy="2.5" r="2.5" stroke="none"/><circle cx="2.5" cy="2.5" r="2" fill="none"/></g><path d="M895.223,532.6h40.4s-.657,3.942-8.7,8.212c-5.447,1.89-12.548,4.132-12.548,4.132s-9.623-3.8-11.429-4.132C894.073,538.02,895.223,532.6,895.223,532.6Z" transform="translate(1 -40)" fill="#8ca8c4" stroke="#000" stroke-width="1"/><g transform="translate(913 498)" fill="#fff" stroke="#000" stroke-width="1"><circle cx="2.5" cy="2.5" r="2.5" stroke="none"/><circle cx="2.5" cy="2.5" r="2" fill="none"/></g><path d="M917.262,459.36s4.7,13.694.4,27.519S905.033,508.1,905.033,508.1a109.009,109.009,0,0,0-7.833-12,74.408,74.408,0,0,0-7.9-8.667,68.764,68.764,0,0,0,15.729-8.767,34.908,34.908,0,0,0,11.243-14.023s-3.537,6.822-7.833,7.2-6-7.2-6-7.2l-50.587,2.1a3.751,3.751,0,0,1-4.1,3.615c-3.962-.149-5.753-4.8-5.753-4.8s-1.495,3.065,9.854,11.138,16.751,10.741,16.751,10.741a112.689,112.689,0,0,0-8.591,11.46,77.436,77.436,0,0,0-5.862,11.368,69.7,69.7,0,0,1-14.4-24.449c-4.56-14.278,1-28.5,1-28.5l4.853-1.76,65.6,1.76Z" transform="translate(1 -40)" fill="#8ca9ca" stroke="#000" stroke-linejoin="round" stroke-width="1.5"/><path d="M799.8,304.281s-3.1-34.067,2.516-52.843,13.136-31.227,32.831-46.857S881.6,189.542,881.6,189.542s31.386,1.018,48.465,18.053,22.1,21.137,28.067,43.842,2.129,52.843,2.129,52.843l-2.129,48.778-1.549,8.323-3.1-.968,1.355,6.194-3.871-1.355.968,8.71h-4.452l-.774,7.743-3.484-1.355-2.323,8.71-2.516-3.871-1.161,11.42-4.452-2.71-2.71,12.388-4.452-1.355-1.936,6.775h-4.646l-1.742,7.162L914,417.708l-6.388,7.549-5.033-2.129-1.742,7.743-5.033-.774-2.516,4.258-3.871-2.323-3.484,4.065-3.871-4.065-3.1,4.065-6.194-5.226-3.1,2.71-4.646-5.226-2.9,2.516-3.484-5.613-3.1,4.839-2.9-6.968-5.226-1.548-1.355-6-3.484,1.355-2.9-5.226-2.129-4.645-3.871,2.323L830,398.546l-3.871.774-2.516-7.936-2.9,1.548-1.161-7.742-2.129,1.161v-4.646l-2.71,2.323-.968-6.194h-2.9V369.7l-3.678-3.1,1.161-3.291-3.1-4.065-.574-11.685-1.942,1.762V339.122Z" fill="#4a2d2b" stroke="#4a2d2b" stroke-linejoin="round" stroke-width="2.5"/><g transform="translate(-0.125)" fill="#e3cda7" stroke-linejoin="round"><path d="M 880.8516235351562 414.7658996582031 C 880.663330078125 414.7658996582031 880.4722900390625 414.7644653320312 880.28369140625 414.7615966796875 C 876.2499389648438 414.7004699707031 872.0623168945312 413.8962097167969 867.8370971679688 412.37109375 C 864.346435546875 411.1111450195312 860.7973022460938 409.3489990234375 857.288330078125 407.1336975097656 C 851.0751342773438 403.211181640625 846.7941284179688 399.0338134765625 845.3873901367188 397.6610717773438 C 845.0682983398438 397.3497314453125 844.9625854492188 397.2474060058594 844.8621215820312 397.1670227050781 C 844.8375854492188 397.1473693847656 844.801513671875 397.118896484375 844.7542724609375 397.0816955566406 C 841.7401733398438 394.7050476074219 831.2352294921875 385.8396301269531 822.6088256835938 371.5444946289062 C 815.3045654296875 359.4403381347656 813.3164672851562 349.2606811523438 811.7190551757812 341.0811767578125 C 811.2301025390625 338.5772399902344 810.7681884765625 336.212158203125 810.2032470703125 334.095947265625 C 808.2135620117188 326.6425476074219 804.8131713867188 319.6250610351562 803.6983642578125 317.4241943359375 C 804.919189453125 315.7192687988281 808.1768188476562 310.9988098144531 809.1334838867188 307.8894958496094 C 809.6378173828125 306.2503356933594 809.4037475585938 303.496826171875 809.0494384765625 299.3288879394531 C 808.5401000976562 293.3368530273438 807.8424682617188 285.1305236816406 809.1746215820312 276.3464965820312 C 810.3179931640625 268.8075561523438 811.4326782226562 263.7765808105469 812.90185546875 259.524169921875 C 814.3372192382812 255.3696594238281 816.1800537109375 251.6991882324219 819.2626342773438 246.8551330566406 C 819.578125 246.3593292236328 819.8845825195312 245.8752288818359 820.1838989257812 245.4024353027344 C 825.3579711914062 237.2288513183594 828.2081298828125 232.7264404296875 838.7950439453125 229.4495086669922 C 840.2301635742188 229.0053405761719 841.6740112304688 228.7893829345703 843.2091064453125 228.7893829345703 C 847.2288818359375 228.7893829345703 851.3182373046875 230.2871856689453 856.05322265625 232.0215148925781 C 862.5511474609375 234.4015045166016 869.916015625 237.0990600585938 879.8181762695312 237.0990600585938 C 888.5950927734375 237.0990600585938 895.2144165039062 234.8308410644531 901.0545043945312 232.8296356201172 C 905.9353637695312 231.1571044921875 910.5455322265625 229.5773620605469 915.6871948242188 229.5773620605469 C 918.5848999023438 229.5773620605469 921.4810180664062 230.0689086914062 924.541015625 231.0801391601562 C 927.84619140625 232.1723785400391 930.877685546875 233.7945556640625 933.5513305664062 235.901611328125 C 935.8553466796875 237.7173614501953 937.9708862304688 239.9556884765625 939.8390502929688 242.5543823242188 C 943.2991943359375 247.3674621582031 945.3836669921875 252.6499328613281 946.9057006835938 256.5070495605469 C 947.44482421875 257.8734436035156 947.9105224609375 259.0534973144531 948.364501953125 260.0440979003906 C 950.748046875 265.2445678710938 950.9656982421875 270.5294189453125 951.2950439453125 278.5290222167969 C 951.373046875 280.4222106933594 951.4536743164062 282.3798828125 951.570068359375 284.5523986816406 C 951.8450317382812 289.6859436035156 951.4268188476562 293.9125366210938 951.0908203125 297.3086547851562 C 950.6578979492188 301.6841430664062 950.31591796875 305.14013671875 951.6871948242188 308.0541381835938 C 953.468017578125 311.8384704589844 956.070556640625 314.7215576171875 957.2255859375 315.8950500488281 C 956.6331176757812 317.706298828125 954.8922729492188 322.9164123535156 951.6443481445312 331.7940673828125 C 949.31103515625 338.1717224121094 948.6856689453125 342.5963134765625 948.1338500976562 346.5000305175781 C 947.6856689453125 349.6707458496094 947.2986450195312 352.4090576171875 946.0951538085938 355.658447265625 C 945.7514038085938 356.5865478515625 945.4340209960938 357.4670715332031 945.1270751953125 358.3186645507812 C 942.98193359375 364.26953125 941.4320678710938 368.5691223144531 935.7304077148438 375.4587097167969 C 929.0084838867188 383.5811157226562 917.4977416992188 395.9033203125 914.4950561523438 398.1910400390625 C 913.9825439453125 398.58154296875 913.3302612304688 399.1956176757812 912.4275512695312 400.0455017089844 C 910.0614013671875 402.2731018066406 906.1011962890625 406.0014343261719 900.7767333984375 409.1231689453125 C 894.390625 412.8674011230469 887.6868286132812 414.7658996582031 880.8516235351562 414.7658996582031 Z" stroke="none"/><path d="M 843.2091674804688 230.0393981933594 C 841.80126953125 230.0393981933594 840.478271484375 230.237060546875 839.1646728515625 230.6436462402344 C 834.3451538085938 232.1354064941406 831.0027465820312 233.9373168945312 828.3272094726562 236.4862976074219 C 825.7579956054688 238.9339599609375 823.7642211914062 242.0835266113281 821.2400512695312 246.0710144042969 C 820.9402465820312 246.5446166992188 820.6332397460938 247.0295715332031 820.3171997070312 247.5261840820312 C 814.5732421875 256.5524291992188 812.536376953125 262.5166320800781 810.4105224609375 276.5339660644531 C 809.1004638671875 285.1718444824219 809.7908935546875 293.2931213378906 810.2949829101562 299.2229919433594 C 810.66162109375 303.5364685058594 810.9039306640625 306.3861083984375 810.3281860351562 308.257080078125 C 809.4105224609375 311.2396850585938 806.6347045898438 315.4268798828125 805.15234375 317.5376281738281 C 806.5275268554688 320.3218994140625 809.56591796875 326.8619689941406 811.4109497070312 333.7735595703125 C 811.98681640625 335.9308166503906 812.4526977539062 338.316162109375 812.9458618164062 340.841552734375 C 814.5244140625 348.9244079589844 816.4889526367188 358.9837646484375 823.6790161132812 370.8986511230469 C 832.1963500976562 385.0129089355469 842.5560302734375 393.7565307617188 845.5282592773438 396.10009765625 C 845.5784912109375 396.1397094726562 845.6168212890625 396.1700134277344 845.6430053710938 396.19091796875 C 845.7963256835938 396.3135986328125 845.9321899414062 396.4461669921875 846.2603759765625 396.7664184570312 C 847.643798828125 398.1163940429688 851.8538208007812 402.2244873046875 857.95556640625 406.0766906738281 C 861.3883056640625 408.2438354492188 864.855712890625 409.9660034179688 868.261474609375 411.1953125 C 872.3563232421875 412.67333984375 876.4075317382812 413.4526977539062 880.3025512695312 413.51171875 C 880.4852905273438 413.5144653320312 880.6699829101562 413.515869140625 880.8516235351562 413.515869140625 C 887.4616088867188 413.515869140625 893.95263671875 411.6751708984375 900.14453125 408.0448608398438 C 905.3471069335938 404.9945068359375 909.2429809570312 401.3267822265625 911.5706787109375 399.1353759765625 C 912.5009765625 398.259521484375 913.1731567382812 397.6267700195312 913.7374877929688 397.1967468261719 C 916.6277465820312 394.9946899414062 928.2236938476562 382.56884765625 934.7674560546875 374.6617126464844 C 937.3402709960938 371.5528259277344 939.2083740234375 368.7935485839844 940.6463623046875 365.9781188964844 C 941.9749145507812 363.3770141601562 942.8906860351562 360.8364868164062 943.9511108398438 357.8948059082031 C 944.2589721679688 357.0407104492188 944.5773315429688 356.1575317382812 944.9229736328125 355.2243041992188 C 946.0797119140625 352.1009826660156 946.4580688476562 349.42431640625 946.8961791992188 346.3250427246094 C 947.4566040039062 342.360107421875 948.091796875 337.8660888671875 950.4703979492188 331.3645935058594 C 953.3603515625 323.4654235839844 955.0537109375 318.4787292480469 955.8040771484375 316.2151489257812 C 954.4423828125 314.7514953613281 952.1729736328125 312.0220947265625 950.5562133789062 308.5863647460938 C 949.0380859375 305.3602905273438 949.39501953125 301.7528381347656 949.846923828125 297.1856079101562 C 950.196044921875 293.6570434570312 950.5917358398438 289.6576843261719 950.3218383789062 284.6192626953125 C 950.2050170898438 282.4390563964844 950.124267578125 280.4774780273438 950.046142578125 278.5805053710938 C 949.7228393554688 270.7288818359375 949.5092163085938 265.5417785644531 947.2282104492188 260.5649108886719 C 946.7601318359375 259.5436401367188 946.2887573242188 258.3490600585938 945.742919921875 256.9658813476562 C 944.2449951171875 253.1697998046875 942.1934814453125 247.9708862304688 938.8240966796875 243.2840270996094 C 937.024169921875 240.7802429199219 934.9898071289062 238.6267395019531 932.7776489257812 236.8833618164062 C 930.2185668945312 234.8666076660156 927.3154296875 233.3134765625 924.1487426757812 232.2669982910156 C 921.2169799804688 231.2981567382812 918.44921875 230.8272094726562 915.6873168945312 230.8273315429688 C 910.7539672851562 230.8275146484375 906.4470825195312 232.3033447265625 901.4601440429688 234.0121459960938 C 895.527587890625 236.0449829101562 888.8035278320312 238.3490600585938 879.8181762695312 238.3490600585938 C 869.6943359375 238.3490600585938 861.892333984375 235.4913940429688 855.6233520507812 233.1952514648438 C 851.0000610351562 231.5018920898438 847.0072021484375 230.0393981933594 843.2091674804688 230.0393981933594 M 843.2091674804688 227.5393981933594 C 853.0350341796875 227.5393981933594 862.7852172851562 235.8490600585938 879.8181762695312 235.8490600585938 C 899.5933837890625 235.8490600585938 907.7158203125 224.203369140625 924.9332275390625 229.8932495117188 C 942.1505737304688 235.5829467773438 946.4478759765625 252.8621826171875 949.5008544921875 259.5232849121094 C 952.5538330078125 266.1843872070312 952.1937255859375 272.8285522460938 952.8182373046875 284.4855041503906 C 953.4427490234375 296.1424560546875 950.597900390625 302.8035888671875 952.8182373046875 307.5218811035156 C 955.03857421875 312.2401733398438 958.6533813476562 315.5424194335938 958.6533813476562 315.5424194335938 C 958.6533813476562 315.5424194335938 956.9814453125 320.8441162109375 952.8182373046875 332.2235412597656 C 948.655029296875 343.6029663085938 950.0427856445312 348.5988159179688 947.267333984375 356.0925903320312 C 944.4918823242188 363.5863647460938 943.3544921875 368.206787109375 936.6934204101562 376.2556457519531 C 930.0323486328125 384.3045043945312 918.37939453125 396.8030395507812 915.2526245117188 399.1853332519531 C 912.1571655273438 401.5437622070312 900.1612548828125 416.015869140625 880.8516235351562 416.015869140625 C 880.6564331054688 416.015869140625 880.4614868164062 416.014404296875 880.2647705078125 416.0114135742188 C 860.6106567382812 415.713623046875 844.82568359375 398.7386474609375 844.0812377929688 398.1430969238281 C 843.3367919921875 397.5475463867188 831.2527465820312 388.2879943847656 821.53857421875 372.1903076171875 C 811.8244018554688 356.0926208496094 811.339599609375 343.1991882324219 808.9955444335938 334.4183654785156 C 806.6514892578125 325.6375427246094 802.234375 317.3125 802.234375 317.3125 C 802.234375 317.3125 806.82861328125 311.1300048828125 807.9387817382812 307.5218811035156 C 809.0489501953125 303.9137573242188 805.7183837890625 290.7996826171875 807.9387817382812 276.1590881347656 C 810.1591796875 261.5184936523438 812.3795776367188 255.3430786132812 818.2080688476562 246.1840209960938 C 824.0365600585938 237.0249938964844 826.7684936523438 231.863525390625 838.4254760742188 228.2554321289062 C 840.0419921875 227.7550964355469 841.627197265625 227.5393981933594 843.2091674804688 227.5393981933594 Z" stroke="none" fill="#e3cda7"/></g><path d="M836.27,291.424c-11.315,1.655-14.731,7.686-14.731,8.967s9.18-3.2,20.5-3.2,19.642,2.348,21.99,2.348,5.391-4.964,0-7.045S847.586,289.77,836.27,291.424Z" fill="#4a2d2b"/><path d="M852.3,291.424c11.315,1.655,14.731,7.686,14.731,8.967s-9.18-3.2-20.5-3.2-19.642,2.348-21.99,2.348-5.391-4.964,0-7.045S840.985,289.77,852.3,291.424Z" transform="translate(71)" fill="#4a2d2b"/><g transform="matrix(1, 0, 0, 1, 775.6, 131.48)" filter="url(#a)"><path d="M841.821,333.91s16.439.641,23.485-7.9" transform="translate(-775.6 -131.48)" fill="none" stroke="rgba(0,0,0,0.07)" stroke-linecap="round" stroke-width="1"/></g><g transform="matrix(1, 0, 0, 1, 775.6, 131.48)" filter="url(#c)"><path d="M865.306,333.91s-16.439.641-23.485-7.9" transform="translate(-722.6 -131.48)" fill="none" stroke="rgba(0,0,0,0.07)" stroke-linecap="round" stroke-width="1"/></g><path d="M867.366,395.83a33.433,33.433,0,0,0,25.083,0" fill="none" stroke="rgba(0,0,0,0.25)" stroke-linecap="round" stroke-width="1"/><g transform="matrix(1, 0, 0, 1, 775.6, 131.48)" filter="url(#e)"><path d="M858.686,385.472s15.413,8.809,43.13,1.021" transform="translate(-775.6 -131.48)" fill="none" stroke="rgba(0,0,0,0.25)" stroke-linecap="round" stroke-width="2.5"/></g><g transform="matrix(1, 0, 0, 1, 775.6, 131.48)" filter="url(#g)"><path d="M858.662,381.971s-2.863.916-2.863,6.185" transform="translate(-775.6 -131.48)" fill="none" stroke="rgba(0,0,0,0.25)" stroke-linecap="round" stroke-width="2.5"/></g><g transform="matrix(1, 0, 0, 1, 775.6, 131.48)" filter="url(#i)"><path d="M855.8,381.971s2.863.916,2.863,6.185" transform="translate(-729.6 -130.48)" fill="none" stroke="rgba(0,0,0,0.25)" stroke-linecap="round" stroke-width="2.5"/></g><path d="M885.8,325.157a55.488,55.488,0,0,1,1.281,12.6c-.214,6.191.6,7.021,1.067,8.967,1.067,4.483,2.562,8.273,1.068,13.023s-4.43,6.138-9.18,6.4-8.113-4.7-8.113-4.7" fill="none" stroke="rgba(0,0,0,0.25)" stroke-linecap="round" stroke-width="2"/><path d="M846.563,225.344s-9.885-19.771,5.193-29.464" transform="translate(-5 1)" fill="none" stroke="#342322" stroke-linecap="round" stroke-width="2.5"/><path d="M840.795,226.087s12.461-16.637-4.771-31.284" transform="translate(76 1)" fill="none" stroke="#342322" stroke-linecap="round" stroke-width="2.5"/><path d="M38.976,0c21.39,0,38.049,18.081,38.049,40.385a42.76,42.76,0,0,1-5,20.186C65.661,72.557,13.684,73.3,7.074,61.809A43.092,43.092,0,0,1,1.555,40.385C1.555,18.081,17.586,0,38.976,0Z" transform="translate(839.908 132.733)" fill="#4a2d2b" stroke="#342322" stroke-width="2.5"/><path d="M842.565,222.53s-4.474-13.09,1.657-22.866" transform="translate(5 -40)" fill="none" stroke="#342322" stroke-linecap="round" stroke-width="2"/><path d="M847.039,216.9s-1.491-2.485,0-7.953" transform="translate(10 -40)" fill="none" stroke="#342322" stroke-linecap="round" stroke-width="2"/><path d="M846.707,206.126a5.052,5.052,0,0,1,.994-2.32" transform="translate(11 -41)" fill="none" stroke="#342322" stroke-linecap="round" stroke-width="2"/><path d="M867.254,220.21s-3.48-19.884,0-25.849" transform="translate(8 -43)" fill="none" stroke="#342322" stroke-linecap="round" stroke-width="2"/><path d="M887.469,207.783s.5-8.285,0-9.279" transform="translate(2 -31)" fill="none" stroke="#342322" stroke-linecap="round" stroke-width="2"/><path d="M901.221,220.21s3.48-8.451,1.823-15.41" transform="translate(1 -40)" fill="none" stroke="#342322" stroke-linecap="round" stroke-width="2"/><path d="M908.512,217.725s2.817-15.741-1.823-23.363" transform="translate(1 -37)" fill="none" stroke="#342322" stroke-linecap="round" stroke-width="2"/><path d="M855.164,149.722s6.628-9.61,14.25-9.942" fill="none" stroke="#342322" stroke-linecap="round" stroke-width="2"/><path d="M857.975,261.137s-1.16-8.285,1.823-12.593" transform="translate(-9 -42)" fill="none" stroke="#342322" stroke-linecap="round" stroke-width="2"/><path d="M864.768,266.439s-3.314-14.084.994-21.54" transform="translate(-3 -40)" fill="none" stroke="#342322" stroke-linecap="round" stroke-width="2"/><path d="M866.922,240.922a5.425,5.425,0,0,1,1.326-2.983" transform="translate(2 -30)" fill="none" stroke="#342322" stroke-linecap="round" stroke-width="2"/><path d="M881.006,258.155s.331-10.107,0-11.6" transform="translate(5 -37)" fill="none" stroke="#342322" stroke-linecap="round" stroke-width="2"/><path d="M901.884,265.114s1.16-14.747-4.474-20.712" transform="translate(86.356 -249.089) rotate(14)" fill="none" stroke="#342322" stroke-linecap="round" stroke-width="2"/><path d="M911.329,258.155s.663-6.462-1.988-10.936" transform="translate(52.737 -178.302) rotate(9)" fill="none" stroke="#342322" stroke-linecap="round" stroke-width="2"/><g transform="matrix(1, 0, 0, 1, 775.6, 131.48)" filter="url(#k)"><g transform="translate(-703.6 -132.43)" fill="#f8f5fa"><path d="M860.921,312.717c-2.888-2.812-7.872-6.222-16.956-5.715a24.336,24.336,0,0,0-12.112,3.319c-4.379,2.535-3.5,3.771-4.845,5.347-2.562,3,3.172,2.362,6.149,3.687s4.658,2.765,11.739,2.581S863.809,315.528,860.921,312.717Z" stroke="none"/><path d="M 845.7433471679688 308.451171875 C 845.1912231445312 308.451171875 844.620849609375 308.4673767089844 844.0481567382812 308.4993591308594 C 839.7014770507812 308.7419738769531 836.59033203125 309.3108825683594 832.6044921875 311.6183776855469 C 829.9902954101562 313.1318054199219 829.6087036132812 313.9797058105469 829.2047729492188 314.8774108886719 C 828.9712524414062 315.3963623046875 828.706787109375 315.9839477539062 828.1619262695312 316.6256713867188 C 828.6970825195312 316.7776184082031 829.4915161132812 316.9192504882812 830.0326538085938 317.0157165527344 C 831.2526245117188 317.2332458496094 832.6353759765625 317.4797668457031 833.767333984375 317.9837036132812 C 834.2313232421875 318.1902465820312 834.6597900390625 318.3968505859375 835.0740966796875 318.5966186523438 C 837.1380004882812 319.5917358398438 838.92041015625 320.451171875 843.7061767578125 320.451171875 C 844.0745239257812 320.451171875 844.4617919921875 320.4459533691406 844.857177734375 320.4356689453125 C 847.5534057617188 320.3654479980469 851.33056640625 319.2894592285156 854.7146606445312 317.6275939941406 C 856.298828125 316.8496398925781 857.6412963867188 316.0166625976562 858.5969848632812 315.2186889648438 C 859.55419921875 314.41943359375 859.7921142578125 313.9319458007812 859.84912109375 313.7671508789062 C 858.2686767578125 312.2337036132812 856.5811767578125 311.0724182128906 854.691162109375 310.2174072265625 C 852.1004638671875 309.0454406738281 849.0902099609375 308.4512023925781 845.7435302734375 308.451171875 L 845.7433471679688 308.451171875 M 845.743896484375 306.951171875 C 853.7097778320312 306.9512023925781 858.2271118164062 310.0946960449219 860.9207763671875 312.7169494628906 C 863.8088989257812 315.5284729003906 851.9768676757812 321.7507629394531 844.896240234375 321.9351501464844 C 837.8158569335938 322.1195068359375 836.134033203125 320.6792907714844 833.1572875976562 319.3540344238281 C 830.180419921875 318.02880859375 824.4462280273438 318.6626586914062 827.00830078125 315.6667785644531 C 828.35595703125 314.0909118652344 827.4741821289062 312.855224609375 831.8529663085938 310.3202209472656 C 836.2318115234375 307.7852172851562 839.6588745117188 307.2420043945312 843.9645385742188 307.0016784667969 C 844.5760498046875 306.9675598144531 845.1688842773438 306.951171875 845.743896484375 306.951171875 Z" stroke="none" fill="rgba(0,0,0,0.89)"/></g></g><path d="M5.5,0A5.5,5.5,0,1,0,11,5.5,5.5,5.5,0,0,0,5.5,0Z" transform="matrix(1, -0.017, 0.017, 1, 910.745, 308.192)" fill="#7b3f2b"/><path d="M2.5,0A2.5,2.5,0,1,0,5,2.5,2.5,2.5,0,0,0,2.5,0Z" transform="matrix(1, -0.017, 0.017, 1, 913.797, 311.044)"/><g transform="matrix(1, 0, 0, 1, 775.6, 131.48)" filter="url(#m)"><g transform="translate(-773.6 -132.43)" fill="#f8f5fa"><path d="M826.812,312.717c2.888-2.812,7.872-6.222,16.956-5.715a24.336,24.336,0,0,1,12.112,3.319c4.379,2.535,3.5,3.771,4.845,5.347,2.562,3-3.172,2.362-6.149,3.687s-4.658,2.765-11.739,2.581S823.924,315.528,826.812,312.717Z" stroke="none"/><path d="M 841.9884643554688 308.451171875 C 838.6421508789062 308.451171875 835.6318969726562 309.04541015625 833.041259765625 310.2173767089844 C 831.1512451171875 311.0723876953125 829.4637451171875 312.2337036132812 827.88330078125 313.7671813964844 C 827.9403076171875 313.9319763183594 828.17822265625 314.4194641113281 829.1354370117188 315.2186889648438 C 830.0911254882812 316.0166625976562 831.43359375 316.8496398925781 833.0177612304688 317.6275939941406 C 836.40185546875 319.2894592285156 840.1790161132812 320.3654174804688 842.8751831054688 320.4356384277344 C 843.2708740234375 320.4459228515625 843.658203125 320.4511413574219 844.0264282226562 320.4511413574219 C 848.8121948242188 320.4511413574219 850.594482421875 319.5917663574219 852.6582641601562 318.5966796875 C 853.0726318359375 318.3968811035156 853.5010986328125 318.1903076171875 853.965087890625 317.9837341308594 C 855.0970458984375 317.4797973632812 856.4797973632812 317.2332458496094 857.6997680664062 317.0157470703125 C 858.2409057617188 316.9192504882812 859.0353393554688 316.7776184082031 859.5704956054688 316.6256713867188 C 859.025634765625 315.9839782714844 858.7611694335938 315.3963623046875 858.5276489257812 314.8774108886719 C 858.1236572265625 313.979736328125 857.7421264648438 313.1318054199219 855.1279296875 311.6183776855469 C 851.14208984375 309.3108825683594 848.0309448242188 308.7419738769531 843.6842651367188 308.4993591308594 C 843.1114501953125 308.4673767089844 842.5408935546875 308.451171875 841.9884643554688 308.451171875 M 841.9884643554688 306.951171875 C 842.5634155273438 306.951171875 843.1563720703125 306.967529296875 843.7678833007812 307.0016784667969 C 848.0735473632812 307.2420043945312 851.5006103515625 307.7852172851562 855.8794555664062 310.3202209472656 C 860.2582397460938 312.8552551269531 859.37646484375 314.0909423828125 860.72412109375 315.6667785644531 C 863.2861938476562 318.6626892089844 857.552001953125 318.02880859375 854.5751342773438 319.3540649414062 C 851.598388671875 320.6793212890625 849.91650390625 322.1194763183594 842.836181640625 321.9351196289062 C 835.7555541992188 321.7507629394531 823.9235229492188 315.5284729003906 826.8116455078125 312.7169799804688 C 829.5053100585938 310.0946960449219 834.0225830078125 306.951171875 841.9884643554688 306.951171875 Z" stroke="none" fill="rgba(0,0,0,0.89)"/></g></g><path d="M5.5,0A5.5,5.5,0,1,1,0,5.5,5.5,5.5,0,0,1,5.5,0Z" transform="matrix(1, 0.017, -0.017, 1, 839.997, 308)" fill="#7b3f2b"/><path d="M2.5,0A2.5,2.5,0,1,1,0,2.5,2.5,2.5,0,0,1,2.5,0Z" transform="matrix(1, 0.017, -0.017, 1, 842.944, 311.052)"/><path d="M822.186,418.384s-1.657,8.45-.828,10.6" transform="translate(-64.747 125.564) rotate(-11)" fill="none" stroke="#342322" stroke-linecap="round" stroke-width="2"/><path d="M826.494,425.509s1.16,3.645-.828,4.805" transform="translate(2 -38)" fill="none" stroke="#342322" stroke-linecap="round" stroke-width="2"/><path d="M839.75,440.587s-.994,4.474,0,6.794" transform="translate(1 -37)" fill="none" stroke="#342322" stroke-linecap="round" stroke-width="2"/><path d="M850.686,453.014s.994,2.651-.663,3.48" transform="translate(-1 -40)" fill="none" stroke="#342322" stroke-linecap="round" stroke-width="2"/><path d="M855.657,453.014s-.994,7.456,0,9.445" transform="translate(-53.38 84.508) rotate(-8)" fill="none" stroke="#342322" stroke-linecap="round" stroke-width="2"/><path d="M876.037,458.979s-.994,5.3,0,6.959" transform="translate(-4 -40)" fill="none" stroke="#342322" stroke-linecap="round" stroke-width="2"/><path d="M885.648,458.979s2.32,5.634-1.657,8.782" transform="translate(1 -40)" fill="none" stroke="#342322" stroke-linecap="round" stroke-width="2"/><path d="M890.784,461.63a6.874,6.874,0,0,1,.828,6.628" transform="translate(243.083 -342.087) rotate(22)" fill="none" stroke="#342322" stroke-linecap="round" stroke-width="2"/><path d="M905.034,456.494s.663,2.817-.663,3.645" transform="translate(-1 -39)" fill="none" stroke="#342322" stroke-linecap="round" stroke-width="2"/><path d="M908.348,451.523s.663,3.48,0,5.634" transform="translate(2 -41)" fill="none" stroke="#342322" stroke-linecap="round" stroke-width="2"/><path d="M921.438,438.273s.994,5.131,0,8.279" transform="translate(102.35 -207.732) rotate(11)" fill="none" stroke="#342322" stroke-linecap="round" stroke-width="2"/><path d="M933.534,422.526s-.166,5.8-1.326,7.953" transform="translate(3 -38)" fill="none" stroke="#342322" stroke-linecap="round" stroke-width="2"/><path d="M942.15,407.945s3.645,3.148,1.657,6.3" transform="translate(2 -37)" fill="none" stroke="#342322" stroke-linecap="round" stroke-width="2"/><path d="M944.4,407.945s-3.645,3.148-1.657,6.3" transform="translate(-129 -40)" fill="none" stroke="#342322" stroke-linecap="round" stroke-width="2"/><path d="M0,8.279S.994,3.148,0,0" transform="translate(833.952 403.548) rotate(179)" fill="none" stroke="#342322" stroke-linecap="round" stroke-width="2"/><path d="M798.688,357.406l2.406-.125,1.9-2.7,2.693-4.41.792-1.69a5.261,5.261,0,0,0,.449-1.347,9.591,9.591,0,0,0,.132-2.192c-.026-.9-.264-4.014-.264-4.014l-.555-6.945s-.29-8.028-.211-8.873a75.848,75.848,0,0,1,1.03-10.589c.9-4.463.871-6.153,2.192-10.959a51.465,51.465,0,0,1,3.713-10.1,57.348,57.348,0,0,1,4.222-7.449c3.09-4.772,3.536-5.458,3.536-5.458a30.665,30.665,0,0,1,6.8-7.69,27.741,27.741,0,0,1,7.9-4.016l2.38-.753,1.381-.325,1.151-.2a1.693,1.693,0,0,1-1.151-.913c-.284-.731-1.584-4.144-1.97-5.667a59.441,59.441,0,0,1-1.056-6.8,25.7,25.7,0,0,1,.162-4.631,19.042,19.042,0,0,1,4.347-9.953c.772-.792,2.465-2.343,2.465-2.343s-5.146,2.952-5.552,3.318-4.489,3.047-6.338,4.753-8.125,6.886-9.019,8-3.291,3.291-4.631,4.9-4.388,5.4-4.753,5.891-3.088,4.408-3.433,5.139-2.437,4.306-2.7,4.916-2.438,5.038-2.661,5.749-2.115,5.509-2.208,5.852-2.156,6.922-2.156,6.922-1.2,5.3-1.453,7.125-.812,6.953-.812,6.953-.453,5.828-.453,6.3-.234,8.422-.234,8.422l.078,8.735.219,5.984s.438,6.656.469,7.016.484,5.938.484,5.938Z" transform="translate(1 -40)" fill="rgba(227,205,167,0.7)" stroke="#b59d82" stroke-linejoin="round" stroke-width="0.1"/><path d="M842.03,357.469h-2.5a14.807,14.807,0,0,1-2.7-2.884c-1.422-1.93-2.7-4.123-2.7-4.123s-.731-1.544-.812-1.828-.137-.723-.269-1.462a9.955,9.955,0,0,1-.2-2.255c.026-.9.2-3.982.2-3.982l.655-6.947s.183-5.85-.04-9.08-.079-4.227-.528-10.481a53.665,53.665,0,0,0-1.17-8.52,16.536,16.536,0,0,0-.687-2.128c-.5-1.393-.92-2.421-2.231-5.561-.424-1.016-1.016-2.67-2.032-4.94-3.494-7.315-2.842-5.633-4.25-7.865a50.874,50.874,0,0,0-3.643-4.847,35.582,35.582,0,0,0-7.2-5.9,29.425,29.425,0,0,0-6.385-2.849l-2.894-.858-2.118-.378-2.425-.224s1.141-.406,2.573-3.695a37.711,37.711,0,0,0,2.021-5.54,34.855,34.855,0,0,0,.734-6.609,44.207,44.207,0,0,0-.662-4.4,19.629,19.629,0,0,0-2.218-5.44,23.524,23.524,0,0,0-2.979-4.2c-.772-.792-3.015-2.978-3.015-2.978a70.534,70.534,0,0,1,7.421,3.665,62.411,62.411,0,0,1,6.563,4.5c2.319,1.922,6.869,6.452,8.656,8.259s3.494,3.311,4.834,4.916,4.55,4.875,4.916,5.363,2.7,3.555,3.717,5.078,2.62,4.225,2.884,4.834,2.173,4.388,2.661,5.891,1.584,4.245,2.052,5.83,2.052,7.028,2.052,7.028,1.117,4.875,1.5,7.048,1,6.866,1,6.866.569,5.95.569,6.419.386,8.491.386,8.491l-.142,8.633-.223,6.033s-.244,4.509-.548,6.906-.447,6.094-.447,6.094Z" transform="translate(119 -42)" fill="rgba(227,205,167,0.7)" stroke="#b59d82" stroke-linejoin="round" stroke-width="0.1"/><g transform="translate(2 -1)"><path d="M846.813,882.186a16.2,16.2,0,0,1,3.4,6.219,22.023,22.023,0,0,1,0,7.677,30.289,30.289,0,0,0,4.859-1.944,14.439,14.439,0,0,0,3.984-3.693,7.556,7.556,0,0,1-2.721-4.567,10.863,10.863,0,0,1,0-5.345Z" transform="translate(1 -40)" fill="#e4cfad" stroke="#000" stroke-width="2.5"/><path d="M821.789,882.808c-3.285,2.021-3.032,7.454-12,14.238s-6.772,4.477-11.117,8.5-1.642,4.422-5.18,6.569S791.47,925,792.354,927.529s11.622,5.508,21.982,6.986a76.925,76.925,0,0,0,30.825-2.564c8.085-2.527,21.354-9.1,21.354-9.1s1.249-2,0-10.738c-.421-2.946-.979-3.573-1.647-10.865.92-7.742-3.158-12.254-3.158-12.254a24.174,24.174,0,0,1-5.18,4.927,56.074,56.074,0,0,1-6.948,3.79s1.011-10.612-2.148-12.886-6.05-3.214-12-3.916S825.074,880.786,821.789,882.808Z" transform="translate(1 -40)" fill="#1b191a" stroke="#000" stroke-linecap="round" stroke-linejoin="round" stroke-width="2.5"/><path d="M849.789,898.9a17.641,17.641,0,0,0-.546,8.163,23.8,23.8,0,0,0,3.91,9.479s3.2-1.028,6.2-2.317,5.831-2.841,5.831-2.841l-1.57-9.718a14.44,14.44,0,0,0,.3-5.606,13.663,13.663,0,0,0-2.317-5.008l-5.606,4.709Z" transform="translate(1 -40)" fill="#0d0a0e"/><path d="M794.552,911.485s3.449,9.854,31.2,9.854,40.894-9.854,40.894-9.854v11s-18.322,9.5-25.223,10.769a86.921,86.921,0,0,1-26.048,1.38c-11.27-1.093-22.633-5.745-22.633-5.745s-1.766-7.8-1.314-12.153S794.552,911.485,794.552,911.485Z" transform="translate(1 -40)" fill="#fff" stroke="#000" stroke-linejoin="round" stroke-width="2"/><path d="M791.324,917.462s13.216,9.621,36.733,8.746,38.774-11.37,38.774-11.37" transform="translate(1 -40)" fill="none" stroke="#000" stroke-linecap="round" stroke-width="1.5"/><path d="M808.525,904.149s24.975-3.11,31.291,3.5" transform="translate(1 -40)" fill="none" stroke="#0d0a0e" stroke-linecap="round" stroke-width="3"/></g><g transform="translate(891.457 839.913)"><path d="M859.058,882.186a16.2,16.2,0,0,0-3.4,6.219,22.023,22.023,0,0,0,0,7.677,30.289,30.289,0,0,1-4.859-1.944,14.439,14.439,0,0,1-3.984-3.693,7.556,7.556,0,0,0,2.721-4.567,10.863,10.863,0,0,0,0-5.345Z" transform="translate(-838.801 -880.534)" fill="#e4cfad" stroke="#000" stroke-width="2.5"/><path d="M836.542,882.808c3.285,2.021,3.032,7.454,12,14.238s6.772,4.477,11.117,8.5,1.642,4.422,5.18,6.569,2.021,12.886,1.137,15.413-11.622,5.508-21.982,6.986a76.925,76.925,0,0,1-30.825-2.564c-8.085-2.527-21.354-9.1-21.354-9.1s-1.249-2,0-10.738c.421-2.946.979-3.573,1.647-10.865-.92-7.742,3.158-12.254,3.158-12.254a24.174,24.174,0,0,0,5.18,4.927,56.074,56.074,0,0,0,6.948,3.79s-.914-11.019,2.244-13.293,5.953-2.807,11.9-3.51S833.258,880.786,836.542,882.808Z" transform="translate(-791.261 -880.534)" fill="#1b191a" stroke="#000" stroke-linecap="round" stroke-linejoin="round" stroke-width="2.5"/><path d="M864.436,898.9a17.641,17.641,0,0,1,.546,8.163,23.8,23.8,0,0,1-3.91,9.479s-3.2-1.028-6.2-2.317-5.831-2.841-5.831-2.841l1.57-9.718a14.44,14.44,0,0,1-.3-5.606,13.663,13.663,0,0,1,2.317-5.008l5.606,4.709Z" transform="translate(-847.155 -880.534)" fill="#0d0a0e"/><path d="M863.455,911.485s-3.449,9.854-31.2,9.854-40.894-9.854-40.894-9.854v11s18.322,9.5,25.223,10.769a86.921,86.921,0,0,0,26.048,1.38c11.27-1.093,22.633-5.745,22.633-5.745s1.766-7.8,1.314-12.153S863.455,911.485,863.455,911.485Z" transform="translate(-790.937 -880.534)" fill="#fff" stroke="#000" stroke-linejoin="round" stroke-width="2"/><path d="M866.832,917.462s-13.216,9.621-36.733,8.746-38.774-11.37-38.774-11.37" transform="translate(-791.085 -880.534)" fill="none" stroke="#000" stroke-linecap="round" stroke-width="1.5"/><path d="M839.817,904.149s-24.975-3.11-31.291,3.5" transform="translate(-781.271 -880.534)" fill="none" stroke="#0d0a0e" stroke-linecap="round" stroke-width="3"/></g></g></svg>