

<svg  viewBox="0 0 409 53" fill="none" xmlns="http://www.w3.org/2000/svg">
<path d="M3.39086 5.92097C2.16144 12.1243 2.31137 17.6806 2.49128 24.0267C2.55125 26.1579 3.45083 30.1253 4.88016 31.9426C5.30996 32.4944 5.88968 32.9511 6.54937 33.227C9.34805 34.3782 12.5166 31.2956 13.706 29.0026C18.024 20.6586 19.8331 13.599 21.8322 6.16832C21.6423 12.4287 21.2325 20.4969 21.7722 26.9666C21.8922 28.3652 22.222 29.6782 22.9317 30.9055C23.6413 32.1328 25.1506 32.8464 26.5999 33.0462C28.7689 33.3507 31.2078 31.914 32.6671 30.3537C36.6152 26.1388 39.0541 20.9345 40.6933 15.5114C41.233 13.7132 42.2526 10.4783 41.9527 8.62303C41.5029 5.79728 39.8637 4.96003 37.8946 4.941C36.3953 4.92197 34.896 6.1493 34.1664 7.39568C33.4367 8.63253 33.1069 11.268 33.3168 12.6761C33.8665 16.3106 36.2654 19.6216 39.9736 20.6396C41.5729 21.0772 44.0717 20.7347 45.3811 21.7052C46.8004 22.7613 46.6005 25.0257 47.8 26.3006C49.1893 27.7848 51.4083 28.0988 53.3174 27.2901C55.2265 26.4814 57.1755 23.7793 56.5458 21.886C55.9261 20.0307 54.3969 19.574 52.3578 19.7452C50.3188 19.926 49.0794 21.0677 48.1598 22.8089C46.4806 25.9581 46.1707 30.8674 49.3892 32.6276C51.7381 33.912 54.5868 33.8549 57.1256 32.932C59.6644 32.0092 61.8034 29.935 63.6925 28.0797C69.07 22.7898 70.9891 20.2209 74.0176 8.67059C74.2975 7.58596 74.0876 6.59646 74.0776 5.33106C74.0676 4.20837 72.9581 2.25796 71.8287 1.92496C70.6792 1.58244 69.6097 2.68609 68.7301 3.45674C67.8505 4.23692 67.1009 5.56894 66.6811 6.63454C64.732 11.62 63.5725 17.6711 63.5725 22.9706C63.5725 25.2635 63.2727 28.7172 64.3422 30.7628C65.4117 32.8084 66.7111 33.4268 69.1099 33.5885C71.5088 33.7598 75.5469 30.8009 75.6369 28.5174" stroke="#EBEDF8" stroke-width="3" stroke-miterlimit="10" stroke-linecap="round" stroke-linejoin="round"/>
<path d="M84.1928 24.3977C85.4123 23.5319 84.8925 21.1343 83.6131 20.3446C82.3337 19.5549 80.2947 19.8879 78.9653 20.592C75.5669 22.3997 74.5874 28.4128 76.9063 31.3907C79.2152 34.3687 84.1428 34.0928 86.9515 31.5335C88.9406 29.7257 89.5903 27.0047 90.7797 24.6451C91.9692 22.2856 94.398 19.4693 97.0968 19.9736C99.8954 20.4969 102.254 23.7603 101.934 26.7097C101.745 28.4984 101.155 29.8875 100.115 31.3812C99.0758 32.875 97.3666 34.1309 95.4875 33.9691C93.1786 33.7693 91.1396 31.6001 90.7198 29.4308C90.3 27.2615 90.6998 25.6346 91.7093 23.6461C92.1791 22.7327 92.7388 21.8193 93.5884 21.1914C94.438 20.573 95.6474 20.2971 96.607 20.7442C97.8864 21.3436 98.8459 24.1979 99.5556 25.3682C100.995 27.7563 103.844 27.4804 106.472 26.3386C109.101 25.1969 109.941 22.2094 110.65 19.8689C109.431 24.4548 108.531 28.9456 109.421 33.5981C111.11 28.7363 116.448 20.2114 119.676 19.8689C120.256 23.275 119.106 29.897 119.416 33.5981C120.616 28.9075 126.183 22.2285 130.381 20.1448C129.791 22.0287 129.332 27.918 128.772 30.7057C128.382 32.6371 130.191 33.4744 132.25 33.5981C133.37 33.6647 135.419 31.8855 136.438 31.4383C138.857 30.4012 140.526 29.0883 142.945 28.0512C144.205 27.5089 145.494 26.9475 146.474 26.0247C147.463 25.1018 148.093 23.7317 147.733 22.4568C147.363 21.1533 145.994 20.2495 144.574 20.1448C143.165 20.0402 141.766 20.6396 140.716 21.5434C137.838 24.0076 136.998 29.7258 139.777 32.2946C142.555 34.8635 147.773 33.6932 150.292 30.8865" stroke="#EBEDF8" stroke-width="3" stroke-miterlimit="10" stroke-linecap="round" stroke-linejoin="round"/>
<path d="M167.044 20.5064C171.792 19.1458 175.66 15.302 176.879 10.7352C177.429 8.67058 177.319 4.80777 175.13 4.37011C174.011 4.14177 172.491 5.74017 171.742 6.56791C170.992 7.39566 170.312 8.67056 169.952 9.70762C168.873 12.7903 168.273 15.7207 167.604 18.8984C167.024 21.6195 166.604 24.4548 167.274 27.1568C167.943 29.8589 168.973 32.6656 171.792 33.3792C174.61 34.0928 180.358 32.3517 180.657 29.5925C181.367 32.913 184.755 34.54 188.044 33.5314C191.332 32.5229 192.982 26.586 191.722 23.5224C190.463 20.4683 186.765 18.8794 183.936 20.7632C181.347 22.4758 180.717 26.9761 180.408 29.9636" stroke="#EBEDF8" stroke-width="3" stroke-miterlimit="10" stroke-linecap="round" stroke-linejoin="round"/>
<path d="M162.206 19.5069C167.104 19.6671 172.261 19.3468 177.159 19.5069" stroke="#EBEDF8" stroke-width="3" stroke-miterlimit="10" stroke-linecap="round" stroke-linejoin="round"/>
<path d="M211.653 20.1639C209.814 24.7593 209.814 28.9075 210.773 33.8264C211.653 29.4118 214.092 26.5956 216.671 22.9516C218.25 20.7252 220.399 19.2315 221.668 20.2019C222.088 20.5254 222.168 21.1058 221.968 21.591C220.409 25.4348 220.699 29.8209 220.549 33.6076C222.098 29.1454 226.106 21.8194 231.284 19.907C232.413 21.4102 230.854 25.7773 230.414 27.5755C229.894 29.6877 229.444 32.7037 231.903 33.6456C232.603 33.912 233.383 33.9216 234.112 33.7598C237.89 32.9511 238.86 29.9731 239.51 27.1664C239.94 25.3301 240.469 21.22 241.869 19.907C242.109 22.1904 240.209 26.6146 240.029 28.9075C239.91 30.4964 240.199 31.543 241.789 32.3041C242.898 32.8369 244.268 32.542 245.157 31.7142C248.705 28.4128 249.455 24.2836 250.814 19.8975C249.055 27.6611 247.686 35.7864 245.927 43.55C245.427 45.7764 244.407 48.2121 242.688 49.9437C241.729 50.9141 239.46 51.2661 238.43 50.3623C236.721 48.8495 238.1 45.1294 239.47 43.4739C241.949 40.4674 244.817 38.6311 248.006 36.7854" stroke="#EBEDF8" stroke-width="3" stroke-miterlimit="10" stroke-linecap="round" stroke-linejoin="round"/>
<path d="M269.186 19.8023C268.906 28.0037 268.216 35.8434 267.936 44.0448C267.886 45.4909 267.547 47.194 266.917 48.507C266.287 49.8295 265.148 51.1139 263.628 51.0663C261.999 51.0092 261.469 49.9627 261.07 48.4689C260.67 46.9752 260.98 45.1865 261.359 43.6832C262.949 37.3276 265.967 30.9245 269.875 25.5489C271.705 23.0276 274.163 19.0316 277.272 19.8118C279.731 20.4302 279.621 23.7222 279.161 26.1008C278.701 28.4794 278.182 31.4002 275.943 32.542C273.704 33.6837 271.175 34.1594 268.676 34.6256" stroke="#EBEDF8" stroke-width="3" stroke-miterlimit="10" stroke-linecap="round" stroke-linejoin="round"/>
<path d="M277.602 32.6276C279.231 33.522 281.23 33.7789 283.049 33.3222C284.868 32.8655 286.478 31.7048 287.427 30.1539" stroke="#EBEDF8" stroke-width="3" stroke-miterlimit="10" stroke-linecap="round" stroke-linejoin="round"/>
<path d="M297.972 25.3301C298.382 23.8268 297.912 22.1333 296.773 21.0296C295.633 19.9164 293.864 19.4407 292.275 19.8023C289.766 20.3732 287.917 22.4472 287.427 24.8639C286.967 27.1378 286.947 29.8874 288.497 31.6761C290.046 33.4648 293.564 34.3877 295.663 33.2175C297.123 32.4087 297.972 30.8389 298.262 29.25C298.552 27.6611 298.762 25.8629 298.562 24.2645C298.462 23.4368 297.462 22.276 296.673 21.9145C295.663 21.4578 294.834 22.8849 294.874 23.9505C294.914 25.0161 295.783 25.8915 296.743 26.4338C298.942 27.6801 301.86 27.6706 304.049 26.4052C306.238 25.1398 307.588 22.6661 307.428 20.2399C306.178 24.6926 305.789 29.3547 306.268 33.9406C307.318 29.9921 309.337 26.272 312.106 23.1608C312.725 22.4663 314.075 21.0011 314.964 20.6681C315.854 20.3351 317.043 19.9926 317.623 20.7157C318.043 21.2294 317.393 23.1799 317.353 23.8364C317.313 24.4928 317.213 25.1493 317.373 25.7868C317.533 26.4242 318.063 27.0332 318.742 27.0617C319.422 27.0903 320.042 26.2625 319.622 25.7487" stroke="#EBEDF8" stroke-width="3" stroke-miterlimit="10" stroke-linecap="round" stroke-linejoin="round"/>
<path d="M326.789 19.6786C333.436 17.89 336.364 12.0292 336.624 8.74671C336.764 6.95802 336.494 4.50331 334.625 4.26545C332.826 4.03711 331.097 6.50132 330.277 8.04263C326.899 14.3697 325.849 22.1238 327.668 29.0027C328.198 30.9912 330.087 33.1604 332.186 33.6361C334.455 34.1594 337.604 32.6752 339.183 31.0292C340.922 29.212 341.502 26.586 343.241 24.7688C345.69 22.2095 347.549 19.8309 349.498 16.91C351.037 14.598 352.487 12.2004 353.316 9.58395C353.756 8.18534 354.096 5.45474 353.686 4.05613C353.276 2.64802 352.287 1.64903 350.757 1.78223C349.058 1.93446 347.469 4.35107 346.759 5.83531C341.572 16.6721 339.663 27.7658 341.342 39.5636C341.542 40.9526 341.772 43.2551 342.661 44.3778C343.551 45.5005 344.54 46.1855 345.85 45.5481C346.899 45.0343 347.659 43.8735 347.689 42.7509C347.709 41.6282 347.829 40.0107 347.819 38.888C347.759 34.0738 346.329 31.0577 347.139 26.7953C349.418 27.8419 352.227 28.0322 354.456 26.9" stroke="#EBEDF8" stroke-width="3" stroke-miterlimit="10" stroke-linecap="round" stroke-linejoin="round"/>
<path d="M322.931 19.4693C327.408 20.1924 332.686 20.1638 337.154 19.3741" stroke="#EBEDF8" stroke-width="3" stroke-miterlimit="10" stroke-linecap="round" stroke-linejoin="round"/>
<path d="M365.191 24.1789C365.96 21.9335 364.271 20.1163 361.842 19.6691C359.413 19.2219 357.014 20.4398 355.685 22.4282C354.356 24.4167 354.256 26.6241 354.586 28.9646C354.875 30.9626 355.765 32.561 357.614 33.541C359.973 34.7874 362.802 33.7503 364.381 31.6667C365.97 29.583 365.82 26.8905 365.89 24.3216C365.92 23.3797 365.75 22.1999 364.821 21.8764C364.131 21.6386 363.321 22.0667 363.012 22.7042C362.702 23.3416 362.682 24.1504 362.992 24.7878C363.701 26.2435 365.64 26.7192 367.31 26.9095C368.989 27.0998 370.648 26.6907 372.207 26.0817C376.335 24.4643 379.644 22.0667 381.203 18.0897C382.722 14.2079 384.302 9.10823 384.302 5.01707C384.302 3.54235 383.482 2.3721 381.983 2.02007C380.793 1.74416 379.024 2.71462 378.344 3.68508C377.665 4.65553 377.095 5.86385 376.665 6.94848C374.486 12.3336 374.006 18.2229 373.617 24.0742C373.517 25.6536 373.137 27.604 373.367 29.1739C373.597 30.7438 374.466 32.3136 375.966 33.0177C378.095 34.0167 381.453 33.3697 383.242 31.895C386.511 29.2025 387.56 23.7698 387.89 19.6786C387.6 22.1619 386.82 25.4919 386.531 27.9751C386.371 29.3547 386.231 30.8484 387 32.0282C387.93 33.4553 389.889 33.5315 391.568 32.9987C393.247 32.4659 395.107 31.4764 395.876 29.9636C395.866 31.9235 398.115 33.6551 400.174 33.7979C402.233 33.9406 404.162 32.9321 405.302 31.3051C406.451 29.6782 406.641 27.0998 406.611 25.1398C406.591 24.0267 406.081 22.7042 405.502 21.7337C404.922 20.7633 403.343 19.7262 402.163 19.7072C399.604 19.6596 398.795 20.4588 397.955 21.591C396.176 24.0076 396.036 28.0798 395.416 30.9721" stroke="#EBEDF8" stroke-width="3" stroke-miterlimit="10" stroke-linecap="round" stroke-linejoin="round"/>
<path d="M389.109 11.4773C388.54 11.5249 388.1 12.1242 388.24 12.6475C388.38 13.1708 389.049 13.5038 389.589 13.3135C390.129 13.1232 390.409 12.4763 390.189 11.972C389.969 11.4678 389.289 11.2109 388.76 11.4202" stroke="#EBEDF8" stroke-width="3" stroke-miterlimit="10" stroke-linecap="round" stroke-linejoin="round"/>
</svg>


