 <svg viewBox="0 0 252 56" fill="none" xmlns="http://www.w3.org/2000/svg">
        <path
          id="h1"
          d="M9.55002 35.63C12.63 28.41 14.07 20.5201 14.06 12.6701C14.06 10.3001 14.23 7.83006 12.33 6.42006C11.7 5.95006 10.06 5.75006 9.30002 5.89006C6.18002 6.50006 3.75001 9.25003 2.14001 11.86"
          stroke="#E9EFFF"
          stroke-width="3"
          stroke-miterlimit="10"
          stroke-linecap="round"
          stroke-linejoin="round"
        />
        <path
          id="h2"
          d="M7.09 22.67C14.16 22.4 21.38 22.54 27.98 19.99C30.41 19.05 32.77 17.79 34.58 15.92C36.67 13.76 38.42 10.84 37.8 7.82999C37.58 6.74999 36.66 5.10999 35.61 4.79999C33.95 4.31999 31.6 5.43999 30.77 6.73999C26.45 13.44 25.21 23.76 27.29 31.47C27.6 32.64 28.99 34.56 29.96 35.29C32.38 37.12 36.1 35.12 37.81 33.38C41.94 29.19 41.35 25.12 42.25 21.44C42.02 25.76 39.84 31.48 40.33 36.22"
          stroke="#E9EFFF"
          stroke-width="3"
          stroke-miterlimit="10"
          stroke-linecap="round"
          stroke-linejoin="round"
        />
        <path
          id="iDot"
          d="M43.49 13.6301C42.97 13.2401 43.94 13.6201 43.3 13.5101"
          stroke="#E9EFFF"
          stroke-width="3"
          stroke-miterlimit="10"
          stroke-linecap="round"
          stroke-linejoin="round"
        />
        <path
          id="comma"
          d="M49.93 32.63C50.32 36.38 49.14 38.8 47.41 42.15"
          stroke="#E9EFFF"
          stroke-width="4"
          stroke-miterlimit="10"
          stroke-linecap="round"
          stroke-linejoin="round"
        />
        <path
          id="I1"
          d="M71.61 6.28001C76.34 6.22001 81.07 6.17 85.8 6.11C83.34 5.38 80.46 6.47003 79.09 8.64003C78.16 10.12 77.92 11.91 77.7 13.64C76.83 20.59 75.96 27.55 75.09 34.5"
          stroke="#E9EFFF"
          stroke-width="3"
          stroke-miterlimit="10"
          stroke-linecap="round"
          stroke-linejoin="round"
        />
        <path
          id="I2"
          d="M67.08 36.73C71.45 34.61 76.58 34.53 81.29 35.75"
          stroke="#E9EFFF"
          stroke-width="3"
          stroke-miterlimit="10"
          stroke-linecap="round"
          stroke-linejoin="round"
        />
        <path
          id="quote"
          d="M94.54 2.51001C94.3 5.78001 93.51 9.00001 92.21 12.01"
          stroke="#E9EFFF"
          stroke-width="4"
          stroke-miterlimit="10"
          stroke-linecap="round"
          stroke-linejoin="round"
        />
        <path
          id="m"
          d="M100.99 21.2C99.91 25.84 99.58 31.0799 99.68 35.8399C101.49 30.7299 105.87 21.8799 109.75 21.3299C110.28 21.2499 110.79 21.3099 110.79 21.8399L109.75 36.0799C111.21 31.3499 115.49 22.5299 119.64 21.3399C120.67 21.0399 121.9 21.3599 121.61 22.3999C120.56 26.2099 119.86 32.1199 119.49 35.8399"
          stroke="#E9EFFF"
          stroke-width="3"
          stroke-miterlimit="10"
          stroke-linecap="round"
          stroke-linejoin="round"
        />
        <path
          id="M"
          d="M136.64 12.02C138.49 9.02995 140.42 6.58995 144.57 6.07995C144.9 6.03995 145.25 6.09996 145.55 6.24996C148.3 7.56996 147.05 10.96 146.83 13.06C146.05 20.55 144.7 28.03 143.92 35.53C145.37 27.51 148.12 19.03 152.19 11.97C153.41 9.83997 155.17 7.63996 157.61 6.83996C158.84 6.43996 160.22 6.39997 161.29 7.12997C163.21 8.44997 162.94 11.39 162.69 13.43C161.76 21.04 160.83 28.65 159.9 36.26C161.64 30.55 163.39 24.84 165.13 19.14C166.48 14.71 169.46 8.26997 173.96 6.59997C175.05 6.18997 176.33 6.46997 177.4 6.93997C179.94 8.04997 178.74 12.23 178.52 14.73C178.17 18.71 176.95 23.07 176.15 26.97C175.75 28.91 175.95 30.55 176.61 32.42C177.32 34.44 178.22 35.62 180.36 35.62C182.5 35.62 184.33 35.15 186.85 32.49"
          stroke="#E9EFFF"
          stroke-width="4"
          stroke-miterlimit="10"
          stroke-linecap="round"
          stroke-linejoin="round"
        />
        <path
          id="a"
          d="M197.48 21.6799C197.03 20.8399 195.43 20.4299 194.54 20.7399C193.64 21.0399 191.8 22.4499 191.19 23.1799C189.26 25.5199 188.68 26.9999 187.8 29.9099C187.25 31.7299 187.94 34.3499 189.4 35.5699C190.42 36.4299 191.76 36.4099 192.96 35.8299C194.16 35.2399 195.01 34.5599 195.74 33.4399C197.86 30.1699 199.71 25.8999 199.27 22.0199C199.4 25.1299 198.25 28.3199 198.37 31.4299C198.43 32.9599 198.58 34.6899 200.12 35.4599C200.93 35.8599 202.02 36.0299 202.75 35.4899C204.78 33.9799 205.48 33.1499 206.4 31.5899"
          stroke="#E9EFFF"
          stroke-width="3"
          stroke-miterlimit="10"
          stroke-linecap="round"
          stroke-linejoin="round"
        />
        <path
          id="rest"
          d="M215.48 25.7C216.66 24.82 216.14 22.43 214.9 21.63C213.66 20.83 211.76 20.81 210.58 21.7C209.4 22.58 208.51 24.08 207.87 25.41C206.62 28.02 205.98 31.27 208.23 33.88C209.13 34.92 210.41 35.59 211.76 35.79C215.81 36.41 219.79 33.73 221.54 30.37C222.93 27.71 223.34 24.41 223.73 21.43L222.5 31.95C222.48 32.76 222.67 33.84 223.15 34.5C224.55 36.44 227.29 35.35 228.67 33.98C230.4 32.27 232.95 30.94 235.27 30.19C237.64 29.42 239.49 28.44 240.5 26.46C240.96 25.56 240.82 24.65 240.59 23.67C239.91 20.78 236.76 20.6 234.88 21.95C233.5 22.94 232.39 24.49 231.93 26.12C231.47 27.79 231.63 29.65 232.03 31.34C232.43 33.03 233.46 34.61 234.97 35.46C237.2 36.72 239.93 35.89 242.31 34.93C248.88 32.27 248.52 26.17 248.88 21.23C248.14 29.75 248.16 40.12 244.72 48.3C243.9 50.26 242.95 52.53 241.03 53.55C240.34 53.91 239.28 54.27 238.27 53.94C236.13 53.23 235.64 51.11 236.24 49.44C236.63 48.33 237.17 47.01 237.89 46.08C240.16 43.2 243.12 40.1 247.17 37.66"
          stroke="#E9EFFF"
          stroke-width="3"
          stroke-miterlimit="10"
          stroke-linecap="round"
          stroke-linejoin="round"
        />
        <path
          id="firstDot"
          d="M225.37 12.74C223.55 12.92 225.32 15.23 225.59 12.85"
          stroke="#E9EFFF"
          stroke-width="2"
          stroke-miterlimit="10"
          stroke-linecap="round"
          stroke-linejoin="round"
        />
        <path
          id="lastDot"
          d="M250.05 13.44C250.67 12 248.41 13.34 249.96 13.52"
          stroke="#E9EFFF"
          stroke-width="2"
          stroke-miterlimit="10"
          stroke-linecap="round"
          stroke-linejoin="round"
        />
      </svg>